<svg xmlns="http://www.w3.org/2000/svg" viewBox="0 0 1600 900">
<defs><linearGradient id="bg" x1="0" y1="0" x2="1" y2="1"><stop stop-color="#0a0f18"/><stop offset=".55" stop-color="#101a28"/><stop offset="1" stop-color="#090e16"/></linearGradient><pattern id="grid" width="80" height="80" patternUnits="userSpaceOnUse"><path d="M80 0H0V80" fill="none" stroke="#7890aa" stroke-opacity=".08"/></pattern><filter id="g"><feGaussianBlur stdDeviation="12" result="b"/><feMerge><feMergeNode in="b"/><feMergeNode in="SourceGraphic"/></feMerge></filter><marker id="c" markerWidth="12" markerHeight="12" refX="10" refY="6" orient="auto"><path d="M0 0l12 6-12 6z" fill="#41dcc8"/></marker><marker id="gr" markerWidth="12" markerHeight="12" refX="10" refY="6" orient="auto"><path d="M0 0l12 6-12 6z" fill="#37cd91"/></marker></defs>
<rect width="1600" height="900" fill="url(#bg)"/><rect width="1600" height="900" fill="url(#grid)"/>
<rect x="120" y="390" width="190" height="125" rx="24" fill="#162233" stroke="#60a5fa" stroke-width="4"/><rect x="610" y="380" width="230" height="145" rx="24" fill="#132521" stroke="#41dcc8" stroke-width="4"/><g filter="url(#g)"><rect x="1190" y="360" width="240" height="180" rx="26" fill="#132a25" stroke="#37cd91" stroke-width="4"/></g>
<path d="M325 452h275" stroke="#41dcc8" stroke-width="10" marker-end="url(#c)"/><path d="M850 430h330" stroke="#37cd91" stroke-width="10" marker-end="url(#gr)"/><path d="M1180 505H920" stroke="#37cd91" stroke-width="8" marker-end="url(#gr)"/>
<path d="M875 505h-45" stroke="#37cd91" stroke-width="8"/><path d="M805 470l-30 65M762 470l-30 65" stroke="#ef4444" stroke-width="11" stroke-linecap="round"/><circle cx="725" cy="452" r="118" fill="none" stroke="#f59e0b" stroke-width="8"/><ellipse cx="1310" cy="450" rx="140" ry="125" fill="#37cd91" opacity=".08" filter="url(#g)"/>
</svg>